<?xml version="1.0" encoding="UTF-8"?>
<svg id="Layer_1" data-name="Layer 1" xmlns="http://www.w3.org/2000/svg" viewBox="0 0 1366 768">
  <path d="M813.29,236.75v41.7l-153.9.7v133.5h-42.8v-133.5l-106.4-.4v68.9c0,17-1.3,29.9-3.9,38.8s-7.6,15.9-15.1,21.1-30.3,7.7-43.1,7.7c-73,0-69.5-46.7-69.5-46.7l51.6.6s2.9,10.1,15.5,10.1,16.6-5.6,18.3-10.7c0,0,1.8-3.3,2.1-20.9v-69.1h-41.3v-41.8h388.5Z" fill="#f59e0b" stroke="red" stroke-miterlimit="10"/>
  <path d="M583.49,294.25l.3,118.3h-43.5l.5-118.3h42.8-.1Z" fill="#f59e0b" stroke="red" stroke-miterlimit="10"/>
  <path d="M729.69,411.75l-1.3,66.6-38.2-.6v-181.8h57.3c14.3,0,25.2,2.2,32.6,6.7,7.4,4.4,13.3,11.2,17.7,20.4,4.4,9.1,6.5,19.4,6.5,30.8,0,17.3-4.5,31.3-13.4,42-8.9,10.7-20.8,16-35.7,16h-25.7.2v-.1ZM729.69,377.85l19.2-.6c15.2,0,22.9-7.9,22.9-23.8s-7-22.4-21.1-22.4l-20.9.4v46.5h-.1v-.1Z" fill="#f59e0b" stroke="red" stroke-miterlimit="10"/>
  <path d="M863.29,411.95h-38.9v-115.3l35.9-.4v13.8c10-16.3,21.6-15.8,28.9-15.1,16.5,1.7,20.1,5,20.1,5l-18.2,35.2c-2.8-.8-5.4-1.1-7.6-1.1-13.4,0-20.1,8.4-20.1,25.1v52.8h-.1Z" fill="#f59e0b" stroke="red" stroke-miterlimit="10"/>
  <path d="M962.59,414.35c-17.3,0-31-6-41.1-17.9-10.2-11.9-15.2-25.9-15.2-41.9s5.3-31.6,15.9-43.1c10.6-11.5,24.4-17.2,41.4-17.2s30.9,5.7,41.3,17c10.4,11.3,15.6,25.6,15.6,42.6s-5.3,31.6-15.8,43.1c-10.5,11.5-24.5,17.3-42,17.3h-.1v.1ZM962.49,381.05c9.9,0,14.6-2.2,18-6.9s4.1-12.6,4.1-22.6-2.2-17.6-5.3-21.8c-3.1-4.3-8.7-6.4-16.7-6.4s-12.8,2.2-16.2,6.6-5.1,11.7-5.1,21.8,1.8,19.8,5.3,23.6c3.5,3.8,8.8,5.8,15.9,5.8h0v-.1Z" fill="#f59e0b" stroke="red" stroke-miterlimit="10"/>
  <ellipse cx="562.99" cy="195.95" rx="29.4" ry="29.1" fill="#f59e0b" stroke="red" stroke-miterlimit="10"/>
  <g>
    <path d="M523.49,444.75v12.7c0,1.9-.2,3.4-.5,4.4s-1,1.8-2,2.4c-1,.6-2.4.9-4.1.9s-2.9-.2-4.1-.5v-4.8c.9.2,1.7.4,2.4.4s1.5-.2,1.9-.6.6-1.1.6-2.2v-12.7h5.9-.1Z" fill="#1e293b"/>
    <path d="M541.09,449.95v15h-5.4v-2.5c-.8,1.8-2.3,2.8-4.7,2.8s-2.5-.4-3.3-1.2-1.2-1.9-1.2-3.4v-10.7h5.9v9.4c0,.6,0,1,.2,1.2s.5.4.9.4.9-.2,1.2-.5c.3-.4.5-.9.5-1.5v-9h5.9Z" fill="#1e293b"/>
    <path d="M542.89,460.65l4.6-.6c.3,1.1,1.3,1.6,3.1,1.6s2.3-.3,2.3-.9-.1-.5-.4-.6-1-.3-2.1-.4c-3-.4-4.9-1.1-5.7-2-.8-.9-1.1-1.9-1.1-3s.6-2.8,1.9-3.7,2.9-1.4,5-1.4c3.6,0,5.9,1.3,6.9,3.9l-4.4.8c-.4-.9-1.3-1.3-2.6-1.3s-1.1,0-1.4.3c-.3.2-.5.3-.5.5,0,.5.5.8,1.4.9,2.5.3,4.1.5,5,.8s1.6.8,2.2,1.6.9,1.7.9,2.7c0,1.6-.7,2.9-2.1,3.9s-3.3,1.4-5.7,1.4c-4.1,0-6.6-1.5-7.5-4.5h.2Z" fill="#1e293b"/>
    <path d="M569.59,449.95v3.8h-3v5.5c0,.8.1,1.2.4,1.3s.6.2.9.2c.5,0,1,0,1.7-.2v4.2c-1.2.2-2.3.3-3.4.3-1.8,0-3.1-.4-4-1.2-.8-.8-1.3-2-1.3-3.7v-6.5h-2.2v-3.8h2.2v-4.9h5.7v5h3,0Z" fill="#1e293b"/>
    <path d="M584.99,444.15v4.7h-5.9v-4.7h5.9ZM584.99,449.95v15h-5.9v-15h5.9Z" fill="#1e293b"/>
    <path d="M602.69,464.85h-5.9v-9.4c0-.8,0-1.3-.4-1.5-.2-.2-.5-.3-.9-.3-1.1,0-1.6.7-1.6,2.2v9h-5.9v-15h5.4v2.1c.8-1.6,2.2-2.4,4.3-2.4s2,.2,2.8.6c.8.4,1.3,1,1.6,1.6.3.7.5,1.8.5,3.5v9.6h.1Z" fill="#1e293b"/>
    <path d="M621.79,449.55v15.3h-5.8v-15.3h-4.2v-4.8h14.2v4.8h-4.2Z" fill="#1e293b"/>
    <path d="M633.29,444.15v4.7h-5.9v-4.7h5.9ZM633.29,449.95v15h-5.9v-15h5.9Z" fill="#1e293b"/>
    <path d="M659.09,464.85h-5.7v-9.4c0-.6,0-1.1-.3-1.3s-.5-.4-1-.4c-1.1,0-1.6.8-1.6,2.4v8.7h-5.6v-9.4c0-1.2-.5-1.8-1.4-1.8s-1.4.6-1.4,1.8v9.4h-5.7v-15h5.3v2c.9-1.5,2.3-2.3,4.1-2.3s3.3.8,4.2,2.3c1-1.5,2.5-2.3,4.5-2.3s1.8.2,2.5.6,1.3.9,1.6,1.6.5,1.6.5,2.9v10.2h0Z" fill="#1e293b"/>
    <path d="M672.09,459.55l5.5.4c-.3,1.5-1.2,2.7-2.5,3.8-1.3,1-3.1,1.6-5.4,1.6s-4.5-.7-6-2.2-2.3-3.3-2.3-5.4.7-4.1,2.2-5.7c1.5-1.5,3.5-2.3,5.9-2.3s4.3.7,5.8,2.2,2.2,3.4,2.2,5.9,0,.5,0,.9h-10c0,.9.2,1.6.5,2.1s.9.7,1.8.7c1.3,0,2-.6,2.3-1.8v-.2ZM671.69,455.65c0-1-.2-1.7-.6-2s-.9-.5-1.5-.5c-1.4,0-2.1.9-2.1,2.6h4.2v-.1Z" fill="#1e293b"/>
  </g>
  <g>
    <path d="M750.99,457.95v7.3h-6.3v-20.1h8.6c2.1,0,3.8.2,4.9.7,1.1.5,2,1.2,2.6,2.3.7,1,1,2.1,1,3.4,0,1.9-.7,3.5-2,4.6-1.3,1.2-3.1,1.8-5.3,1.8h-3.5ZM750.89,453.65h2.1c1.8,0,2.7-.7,2.7-2s-.8-1.9-2.5-1.9h-2.3v3.9Z" fill="#1e293b"/>
    <path d="M769.59,465.25h-5.6v-15h4.9v3.1c.6-2.2,1.9-3.4,3.9-3.4s.5,0,.9,0v5.2h-1.1c-1.9,0-2.9,1.1-2.9,3.3v6.9h-.1v-.1Z" fill="#1e293b"/>
    <path d="M782.79,465.55c-2.5,0-4.5-.8-5.9-2.3-1.5-1.5-2.2-3.4-2.2-5.4s.8-4.1,2.3-5.6,3.5-2.2,6-2.2,4.4.7,5.9,2.2,2.2,3.3,2.2,5.5-.8,4.1-2.3,5.6-3.5,2.2-6,2.2ZM782.79,461.95c.9,0,1.5-.5,1.7-1.4s.3-1.9.3-3,0-2.4-.4-3c-.3-.6-.8-.9-1.5-.9s-1.2.3-1.5,1c-.3.6-.5,1.7-.5,3.1s.2,2.9.5,3.4c.3.6.8.8,1.5.8h-.1Z" fill="#1e293b"/>
    <path d="M802.39,459.15l5,.4c-.2,1.7-1,3.2-2.2,4.3s-2.9,1.6-4.9,1.6-4.1-.7-5.6-2.2-2.1-3.3-2.1-5.5.7-4.2,2.1-5.7,3.3-2.2,5.5-2.2,3.7.6,4.9,1.7c1.3,1.1,2,2.5,2.2,4.3l-5.1.4c-.2-1.6-.8-2.4-1.8-2.4s-1.1.3-1.4.9c-.3.6-.4,1.6-.4,3s0,2.1.4,2.7c.3.6.8.9,1.5.9,1,0,1.7-.7,1.9-2.2h0Z" fill="#1e293b"/>
    <path d="M823.69,450.25v15h-5.4v-2.5c-.8,1.8-2.3,2.8-4.7,2.8s-2.5-.4-3.3-1.2-1.2-1.9-1.2-3.4v-10.7h5.9v9.4c0,.6,0,1,.2,1.2s.5.4.9.4.9-.2,1.2-.5c.3-.4.5-.9.5-1.5v-9h5.9,0Z" fill="#1e293b"/>
    <path d="M832.39,465.25h-5.6v-15h4.9v3.1c.6-2.2,1.9-3.4,3.9-3.4s.5,0,.9,0v5.2h-1.1c-1.9,0-2.9,1.1-2.9,3.3v6.9h-.1v-.1Z" fill="#1e293b"/>
    <path d="M848.19,459.85l5.5.4c-.3,1.5-1.2,2.7-2.5,3.8-1.3,1-3.1,1.6-5.4,1.6s-4.5-.7-6-2.2-2.3-3.3-2.3-5.4.7-4.1,2.2-5.7c1.5-1.5,3.5-2.3,5.9-2.3s4.3.7,5.8,2.2,2.2,3.4,2.2,5.9,0,.5,0,.9h-10c0,.9.2,1.6.5,2.1s.9.7,1.8.7c1.3,0,2-.6,2.3-1.8v-.2ZM847.79,455.95c0-1-.2-1.7-.6-2s-.9-.5-1.5-.5c-1.4,0-2.1.9-2.1,2.6h4.2v-.1Z" fill="#1e293b"/>
    <path d="M878.59,465.25h-5.7v-9.4c0-.6,0-1.1-.3-1.3-.2-.2-.5-.4-1-.4-1.1,0-1.6.8-1.6,2.4v8.7h-5.6v-9.4c0-1.2-.5-1.8-1.4-1.8s-1.4.6-1.4,1.8v9.4h-5.7v-15h5.3v2c.9-1.5,2.3-2.3,4.1-2.3s3.3.8,4.2,2.3c1-1.5,2.5-2.3,4.5-2.3s1.8.2,2.5.6c.7.4,1.3.9,1.6,1.6.3.6.5,1.6.5,2.9v10.2h0Z" fill="#1e293b"/>
    <path d="M891.59,459.85l5.5.4c-.3,1.5-1.2,2.7-2.5,3.8-1.3,1-3.1,1.6-5.4,1.6s-4.5-.7-6-2.2-2.3-3.3-2.3-5.4.7-4.1,2.2-5.7c1.5-1.5,3.5-2.3,5.9-2.3s4.3.7,5.8,2.2,2.2,3.4,2.2,5.9,0,.5,0,.9h-10c0,.9.2,1.6.5,2.1s.9.7,1.8.7c1.3,0,2-.6,2.3-1.8v-.2ZM891.19,455.95c0-1-.2-1.7-.6-2s-.9-.5-1.5-.5c-1.4,0-2.1.9-2.1,2.6h4.2v-.1Z" fill="#1e293b"/>
    <path d="M913.99,465.25h-5.9v-9.4c0-.8,0-1.3-.4-1.5-.2-.2-.5-.3-.9-.3-1.1,0-1.6.7-1.6,2.2v9h-5.9v-15h5.4v2.1c.8-1.6,2.2-2.4,4.3-2.4s2,.2,2.8.6,1.3,1,1.6,1.6c.3.7.5,1.8.5,3.5v9.6h.1Z" fill="#1e293b"/>
    <path d="M926.39,450.25v3.8h-3v5.5c0,.8,0,1.2.4,1.3.3,0,.6.2.9.2.5,0,1,0,1.7-.2v4.2c-1.2.2-2.3.3-3.4.3-1.8,0-3.1-.4-4-1.2-.8-.8-1.3-2-1.3-3.7v-6.5h-2.2v-3.8h2.2v-4.9h5.7v5h3,0Z" fill="#1e293b"/>
  </g>
</svg>