<svg xmlns="http://www.w3.org/2000/svg" id="Layer_1" data-name="Layer 1" viewBox="0 0 642.84 312.51">
  <defs>
    <style>
      .cls-1 {
        fill: red;
        stroke: red;
      }

      .cls-1, .cls-2 {
        stroke-miterlimit: 10;
      }

      .cls-2 {
        stroke: #000;
      }
    </style>
  </defs>
  <path class="cls-1" d="M435.21,70.36v41.69l-153.89.65v133.48h-42.78V112.7l-106.4-.36v68.91c0,16.97-1.28,29.89-3.87,38.76-2.57,8.88-7.62,15.9-15.11,21.09-7.49,5.19-30.35,7.72-43.15,7.72C-3.03,248.82.53,202.12.53,202.12l51.65.59s2.93,10.06,15.52,10.06c14.26,0,16.55-5.64,18.34-10.65,0,0,1.78-3.33,2.14-20.88v-69.06l-41.32-.14v-41.69h388.36Z" />
  <path class="cls-1" d="M205.4,127.9l.3,118.28h-43.53l.47-118.28h42.76Z" />
  <path class="cls-2" d="M351.57,245.43l-1.26,66.57-38.16-.63v-181.8h57.32c14.29,0,25.15,2.22,32.59,6.66,7.44,4.44,13.34,11.23,17.7,20.38,4.36,9.15,6.54,19.4,6.54,30.77,0,17.31-4.46,31.3-13.37,41.95-8.91,10.66-20.81,15.98-35.69,15.98l-25.67.12ZM351.57,211.52l19.21-.63c15.24,0,22.86-7.95,22.86-23.84,0-14.96-7.04-22.44-21.13-22.44l-20.94.44v46.47Z" />
  <path class="cls-2" d="M485.19,245.61h-38.87v-115.33l35.88-.41v13.82c10.05-16.33,21.6-15.84,28.89-15.07,16.49,1.73,20.1,5.02,20.1,5.02l-18.21,35.2c-2.85-.75-5.39-1.13-7.63-1.13-13.43,0-20.15,8.35-20.15,25.06v52.84Z" />
  <path class="cls-2" d="M584.52,247.99c-17.26,0-30.97-5.95-41.14-17.86-10.17-11.91-15.25-25.87-15.25-41.9,0-17.24,5.3-31.6,15.91-43.09,10.61-11.49,24.41-17.24,41.39-17.24s30.89,5.67,41.29,17.01c10.4,11.34,15.61,25.55,15.61,42.64s-5.27,31.62-15.81,43.15c-10.54,11.53-24.54,17.29-42.01,17.29ZM584.38,214.66c9.94,0,14.63-2.23,18.04-6.91,2.75-3.77,4.13-12.56,4.13-22.61s-2.24-17.56-5.34-21.84c-3.1-4.28-8.66-6.42-16.67-6.42-7.37,0-12.77,2.21-16.19,6.62-3.42,4.42-5.13,11.68-5.13,21.81,0,11.89,1.76,19.75,5.29,23.59,3.53,3.84,8.82,5.76,15.87,5.76Z" />
  <ellipse class="cls-1" cx="184.91" cy="29.59" rx="29.39" ry="29.09" />
  <g>
    <path d="M145.3,278.43v12.66c0,1.94-.17,3.42-.52,4.44s-1.03,1.82-2.04,2.41c-1.01.59-2.38.89-4.11.89-1.52,0-2.9-.16-4.12-.49v-4.8c.86.25,1.67.37,2.41.37.88,0,1.51-.2,1.88-.61s.56-1.15.56-2.22v-12.66h5.93Z" />
    <path d="M162.95,283.55v14.97h-5.43v-2.46c-.79,1.84-2.35,2.77-4.65,2.77-1.42,0-2.52-.4-3.3-1.19-.78-.79-1.17-1.92-1.17-3.39v-10.7h5.87v9.42c0,.59.08,1,.24,1.24.16.24.48.36.95.36.5,0,.91-.18,1.22-.54.31-.36.47-.86.47-1.51v-8.98h5.8Z" />
    <path d="M164.71,294.28l4.64-.63c.27,1.08,1.31,1.62,3.15,1.62,1.52,0,2.28-.29,2.28-.88,0-.26-.15-.45-.44-.6-.29-.14-.99-.29-2.09-.43-3.04-.42-4.94-1.08-5.7-1.98-.76-.9-1.13-1.9-1.13-3,0-1.53.64-2.77,1.91-3.72,1.28-.95,2.95-1.42,5.02-1.42,3.63,0,5.95,1.31,6.95,3.93l-4.45.84c-.41-.88-1.28-1.32-2.6-1.32-.63,0-1.1.09-1.41.26-.31.17-.46.34-.46.51,0,.49.47.79,1.41.9,2.45.27,4.12.55,4.99.83.87.29,1.62.81,2.24,1.56.62.76.93,1.67.93,2.74,0,1.64-.68,2.94-2.05,3.9-1.37.96-3.26,1.44-5.66,1.44-4.05,0-6.56-1.52-7.52-4.55Z" />
    <path d="M191.4,283.55v3.81h-2.99v5.52c0,.76.14,1.21.43,1.35.28.14.58.21.88.21.47,0,1.03-.08,1.68-.25v4.18c-1.16.23-2.3.34-3.41.34-1.81,0-3.13-.39-3.98-1.16-.85-.77-1.27-2.01-1.27-3.71v-1.75s.01-4.72.01-4.72h-2.24v-3.81h2.24l.09-4.87,5.58-.09v4.96h2.99Z" />
    <path d="M206.76,277.8v4.65h-5.87v-4.65h5.87ZM206.76,283.55v14.97h-5.87v-14.97h5.87Z" />
    <path d="M224.47,298.52h-5.87v-9.42c0-.78-.12-1.27-.36-1.49-.24-.22-.54-.32-.91-.32-1.07,0-1.6.75-1.6,2.24v8.99h-5.87v-14.97h5.45v2.12c.8-1.62,2.24-2.43,4.31-2.43,1.09,0,2.01.21,2.76.62.75.42,1.29.96,1.61,1.62.32.66.49,1.81.49,3.45v9.58Z" />
    <path d="M243.56,283.24v15.28h-5.84v-15.28h-4.17v-4.81h14.17v4.81h-4.17Z" />
    <path d="M255.15,277.8v4.65h-5.87v-4.65h5.87ZM255.15,283.55v14.97h-5.87v-14.97h5.87Z" />
    <path d="M280.92,298.52h-5.7v-9.36c0-.63-.09-1.07-.27-1.32s-.5-.38-.96-.38c-1.1,0-1.65.8-1.65,2.4v8.66h-5.64v-9.36c0-1.2-.46-1.8-1.38-1.8s-1.43.6-1.43,1.8v9.36h-5.65v-14.97h5.27v2.02c.94-1.55,2.31-2.33,4.11-2.33,1.93,0,3.34.78,4.21,2.33.97-1.55,2.46-2.33,4.47-2.33.96,0,1.81.2,2.54.6s1.26.92,1.59,1.55.49,1.61.49,2.94v10.19Z" />
    <path d="M293.92,293.15l5.48.37c-.32,1.47-1.15,2.73-2.48,3.76-1.33,1.04-3.13,1.55-5.39,1.55-2.52,0-4.53-.73-6.03-2.19-1.5-1.46-2.25-3.26-2.25-5.42s.74-4.13,2.22-5.67c1.48-1.54,3.46-2.31,5.93-2.31s4.33.73,5.81,2.18c1.48,1.45,2.22,3.43,2.22,5.93,0,.21,0,.49-.01.85h-10.02c.02.94.19,1.64.5,2.1.31.46.91.68,1.8.68,1.28,0,2.03-.61,2.25-1.84ZM293.52,289.26c0-1.01-.21-1.69-.61-2.04s-.89-.52-1.47-.52c-1.39,0-2.08.85-2.08,2.56h4.17Z" />
  </g>
  <g>
    <path d="M372.93,291.58v7.3h-6.26v-20.09h8.58c2.14,0,3.77.25,4.88.74,1.11.49,2,1.24,2.65,2.25.65,1.01.98,2.14.98,3.4,0,1.91-.67,3.46-2,4.64-1.33,1.18-3.12,1.77-5.34,1.77h-3.49ZM372.84,287.27h2.06c1.82,0,2.72-.67,2.72-2,0-1.26-.84-1.88-2.52-1.88h-2.27v3.89Z" />
    <path d="M391.47,298.88h-5.62v-14.97h4.89v3.09c.56-2.25,1.86-3.37,3.9-3.37.21,0,.49.02.85.06v5.23c-.41-.1-.78-.15-1.1-.15-1.94,0-2.92,1.08-2.92,3.25v6.86Z" />
    <path d="M404.66,299.19c-2.48,0-4.46-.77-5.92-2.32-1.46-1.55-2.19-3.36-2.19-5.44,0-2.24.76-4.1,2.29-5.59,1.53-1.49,3.51-2.24,5.95-2.24s4.44.74,5.94,2.21c1.5,1.47,2.25,3.32,2.25,5.53s-.76,4.1-2.27,5.6c-1.52,1.5-3.53,2.25-6.04,2.25ZM404.75,295.63c.91,0,1.47-.47,1.67-1.42.2-.95.3-1.94.3-2.97,0-1.4-.14-2.41-.43-3.03-.29-.62-.79-.93-1.53-.93-.68,0-1.17.32-1.49.96-.31.64-.47,1.69-.47,3.15,0,1.72.16,2.85.49,3.41.32.55.81.83,1.46.83Z" />
    <path d="M424.28,292.85l5,.43c-.24,1.75-.97,3.17-2.2,4.27-1.23,1.1-2.87,1.65-4.91,1.65-2.29,0-4.14-.72-5.57-2.16-1.43-1.44-2.14-3.28-2.14-5.53s.71-4.19,2.13-5.67,3.26-2.23,5.53-2.23c2.01,0,3.65.56,4.92,1.68,1.27,1.12,1.99,2.54,2.18,4.26l-5.14.43c-.22-1.58-.81-2.37-1.8-2.37-.63,0-1.09.29-1.38.86-.29.57-.43,1.57-.43,3,0,1.23.14,2.13.43,2.72.29.59.79.88,1.51.88,1.05,0,1.67-.74,1.87-2.22Z" />
    <path d="M445.58,283.91v14.97h-5.43v-2.46c-.79,1.84-2.35,2.77-4.65,2.77-1.42,0-2.52-.4-3.3-1.19s-1.17-1.92-1.17-3.39v-10.7h5.87v9.42c0,.59.08,1,.24,1.24.16.24.48.36.95.36.5,0,.91-.18,1.22-.54.31-.36.47-.86.47-1.51v-8.98h5.8Z" />
    <path d="M454.3,298.88h-5.62v-14.97h4.89v3.09c.56-2.25,1.86-3.37,3.9-3.37.21,0,.49.02.85.06v5.23c-.41-.1-.78-.15-1.1-.15-1.94,0-2.92,1.08-2.92,3.25v6.86Z" />
    <path d="M470.06,293.51l5.48.37c-.32,1.47-1.15,2.73-2.48,3.76-1.33,1.04-3.13,1.55-5.39,1.55-2.52,0-4.53-.73-6.04-2.19-1.5-1.46-2.25-3.26-2.25-5.42s.74-4.13,2.22-5.67c1.48-1.54,3.46-2.31,5.93-2.31s4.33.73,5.81,2.18c1.48,1.45,2.21,3.43,2.21,5.93,0,.21,0,.49-.01.85h-10.02c.02.94.19,1.64.5,2.1.31.46.91.68,1.8.68,1.28,0,2.03-.61,2.25-1.84ZM469.66,289.63c0-1.01-.21-1.69-.61-2.04s-.89-.52-1.47-.52c-1.39,0-2.08.85-2.08,2.56h4.17Z" />
    <path d="M500.53,298.88h-5.7v-9.36c0-.63-.09-1.07-.27-1.32-.18-.25-.5-.38-.96-.38-1.1,0-1.65.8-1.65,2.4v8.66h-5.64v-9.36c0-1.2-.46-1.8-1.38-1.8s-1.43.6-1.43,1.8v9.36h-5.65v-14.97h5.27v2.02c.94-1.55,2.31-2.33,4.11-2.33,1.93,0,3.34.78,4.21,2.33.97-1.55,2.46-2.33,4.47-2.33.96,0,1.81.2,2.54.6.73.4,1.26.92,1.59,1.55.33.63.49,1.61.49,2.94v10.19Z" />
    <path d="M513.53,293.51l5.48.37c-.32,1.47-1.15,2.73-2.48,3.76-1.33,1.04-3.13,1.55-5.39,1.55-2.52,0-4.53-.73-6.04-2.19-1.5-1.46-2.25-3.26-2.25-5.42s.74-4.13,2.22-5.67c1.48-1.54,3.46-2.31,5.93-2.31s4.33.73,5.81,2.18c1.48,1.45,2.21,3.43,2.21,5.93,0,.21,0,.49-.01.85h-10.02c.02.94.19,1.64.5,2.1.31.46.91.68,1.8.68,1.28,0,2.03-.61,2.25-1.84ZM513.13,289.63c0-1.01-.21-1.69-.61-2.04s-.89-.52-1.47-.52c-1.39,0-2.08.85-2.08,2.56h4.17Z" />
    <path d="M535.93,298.88h-5.87v-9.42c0-.78-.12-1.27-.36-1.49-.24-.22-.54-.32-.91-.32-1.07,0-1.6.75-1.6,2.24v8.99h-5.87v-14.97h5.45v2.12c.8-1.62,2.24-2.43,4.31-2.43,1.09,0,2.01.21,2.76.62s1.29.96,1.61,1.62c.32.66.49,1.81.49,3.45v9.58Z" />
    <path d="M548.26,283.91v3.81h-2.99v5.52c0,.76.14,1.21.43,1.35.28.14.58.21.88.21.47,0,1.03-.08,1.68-.25v4.18c-1.16.23-2.3.34-3.42.34-1.81,0-3.13-.39-3.98-1.16-.85-.77-1.27-2.01-1.27-3.71l.02-1.75v-4.72h-2.24v-3.81h2.24l.09-4.87,5.58-.09v4.96h2.99Z" />
  </g>
<text x="480" y="60" font-size="20" fill="#000000">&#8482;</text></svg>